<svg xmlns="http://www.w3.org/2000/svg" viewBox="0 0 200 200" fill="#F7FE62"><title>Infisical</title><g transform="translate(0,200) scale(0.1,-0.1)"><path d="M570 1311 c-97 -32 -175 -106 -211 -200 -44 -118 -7 -267 88 -350 143 -127 350 -101 502 64 l42 46 22 -28 c76 -98 201 -163 311 -163 173 0 316 148 316 326 0 109 -74 230 -174 282 -45 24 -62 27 -146 27 -84 -1 -101 -4 -149 -29 -30 -15 -82 -55 -117 -89 l-63 -62 -66 63 c-85 81 -155 113 -255 118 -41 2 -86 0 -100 -5z m218 -198 c68 -54 105 -99 98 -121 -9 -27 -85 -100 -133 -129 -57 -33 -141 -34 -188 -1 -94 64 -100 200 -11 269 62 48 160 41 234 -18z m654 -3 c67 -75 64 -158 -8 -227 -45 -43 -61 -48 -139 -43 -16 1 -46 10 -65 20 -44 23 -140 118 -140 139 0 19 72 99 117 130 40 27 105 39 158 30 30 -5 50 -18 77 -49z"/></g></svg>
